<svg width="44" height="44" viewBox="0 0 44 44" fill="none" xmlns="http://www.w3.org/2000/svg">
<rect width="44" height="44" rx="22" fill="#F8F8F8"/>
<path d="M30.3333 17.4167H25.3333" stroke="black" stroke-width="1.5" stroke-miterlimit="10" stroke-linecap="round" stroke-linejoin="round"/>
<path d="M17.0001 17.4167H13.6667" stroke="black" stroke-width="1.5" stroke-miterlimit="10" stroke-linecap="round" stroke-linejoin="round"/>
<path d="M20.3334 20.3333C21.9442 20.3333 23.2501 19.0275 23.2501 17.4167C23.2501 15.8058 21.9442 14.5 20.3334 14.5C18.7226 14.5 17.4167 15.8058 17.4167 17.4167C17.4167 19.0275 18.7226 20.3333 20.3334 20.3333Z" stroke="black" stroke-width="1.5" stroke-miterlimit="10" stroke-linecap="round" stroke-linejoin="round"/>
<path d="M30.3333 26.5833H27" stroke="black" stroke-width="1.5" stroke-miterlimit="10" stroke-linecap="round" stroke-linejoin="round"/>
<path d="M18.6667 26.5833H13.6667" stroke="black" stroke-width="1.5" stroke-miterlimit="10" stroke-linecap="round" stroke-linejoin="round"/>
<path d="M23.6667 29.5C25.2775 29.5 26.5833 28.1942 26.5833 26.5833C26.5833 24.9725 25.2775 23.6667 23.6667 23.6667C22.0558 23.6667 20.75 24.9725 20.75 26.5833C20.75 28.1942 22.0558 29.5 23.6667 29.5Z" stroke="black" stroke-width="1.5" stroke-miterlimit="10" stroke-linecap="round" stroke-linejoin="round"/>
</svg>
