<svg width="16" height="16" viewBox="0 0 16 16" fill="none" xmlns="http://www.w3.org/2000/svg">
<path d="M3.33331 6.66668H4.66665C5.99998 6.66668 6.66665 6.00001 6.66665 4.66668V3.33334C6.66665 2.00001 5.99998 1.33334 4.66665 1.33334H3.33331C1.99998 1.33334 1.33331 2.00001 1.33331 3.33334V4.66668C1.33331 6.00001 1.99998 6.66668 3.33331 6.66668Z" stroke="black" stroke-miterlimit="10" stroke-linecap="round" stroke-linejoin="round"/>
<path d="M11.3333 6.66668H12.6666C14 6.66668 14.6666 6.00001 14.6666 4.66668V3.33334C14.6666 2.00001 14 1.33334 12.6666 1.33334H11.3333C9.99998 1.33334 9.33331 2.00001 9.33331 3.33334V4.66668C9.33331 6.00001 9.99998 6.66668 11.3333 6.66668Z" stroke="black" stroke-miterlimit="10" stroke-linecap="round" stroke-linejoin="round"/>
<path d="M11.3333 14.6667H12.6666C14 14.6667 14.6666 14 14.6666 12.6667V11.3333C14.6666 10 14 9.33334 12.6666 9.33334H11.3333C9.99998 9.33334 9.33331 10 9.33331 11.3333V12.6667C9.33331 14 9.99998 14.6667 11.3333 14.6667Z" stroke="black" stroke-miterlimit="10" stroke-linecap="round" stroke-linejoin="round"/>
<path d="M3.33331 14.6667H4.66665C5.99998 14.6667 6.66665 14 6.66665 12.6667V11.3333C6.66665 10 5.99998 9.33334 4.66665 9.33334H3.33331C1.99998 9.33334 1.33331 10 1.33331 11.3333V12.6667C1.33331 14 1.99998 14.6667 3.33331 14.6667Z" stroke="black" stroke-miterlimit="10" stroke-linecap="round" stroke-linejoin="round"/>
</svg>
