<svg width="252" height="79" viewBox="0 0 252 79" fill="none" xmlns="http://www.w3.org/2000/svg">
<path d="M91.1499 39.5398V67.2898H86.8749V39.5398H91.1499ZM105.725 67.6273C103.775 67.6273 102.013 67.1898 100.438 66.3148C98.8626 65.4148 97.6251 64.1648 96.7251 62.5648C95.8251 60.9398 95.3751 59.0648 95.3751 56.9398C95.3751 54.8398 95.8376 52.9773 96.7626 51.3523C97.6876 49.7273 98.9501 48.4773 100.55 47.6023C102.15 46.7273 103.938 46.2898 105.913 46.2898C107.888 46.2898 109.675 46.7273 111.275 47.6023C112.875 48.4773 114.138 49.7273 115.063 51.3523C115.988 52.9773 116.45 54.8398 116.45 56.9398C116.45 59.0398 115.975 60.9023 115.025 62.5273C114.075 64.1523 112.775 65.4148 111.125 66.3148C109.5 67.1898 107.7 67.6273 105.725 67.6273ZM105.725 63.9148C106.825 63.9148 107.85 63.6523 108.8 63.1273C109.775 62.6023 110.563 61.8148 111.163 60.7648C111.763 59.7148 112.063 58.4398 112.063 56.9398C112.063 55.4398 111.775 54.1773 111.2 53.1523C110.625 52.1023 109.863 51.3148 108.913 50.7898C107.963 50.2648 106.938 50.0023 105.838 50.0023C104.738 50.0023 103.713 50.2648 102.763 50.7898C101.838 51.3148 101.1 52.1023 100.55 53.1523C100 54.1773 99.7251 55.4398 99.7251 56.9398C99.7251 59.1648 100.288 60.8898 101.413 62.1148C102.563 63.3148 104 63.9148 105.725 63.9148ZM131.101 46.2898C132.726 46.2898 134.176 46.6273 135.451 47.3023C136.751 47.9773 137.764 48.9773 138.489 50.3023C139.214 51.6273 139.576 53.2273 139.576 55.1023V67.2898H135.339V55.7398C135.339 53.8898 134.876 52.4773 133.951 51.5023C133.026 50.5023 131.764 50.0023 130.164 50.0023C128.564 50.0023 127.289 50.5023 126.339 51.5023C125.414 52.4773 124.951 53.8898 124.951 55.7398V67.2898H120.676V46.6273H124.951V48.9898C125.651 48.1398 126.539 47.4773 127.614 47.0023C128.714 46.5273 129.876 46.2898 131.101 46.2898ZM161.867 41.2273V44.7148H154.929V67.2898H150.654V44.7148H143.679V41.2273H161.867ZM170.471 49.6273C171.096 48.5773 171.921 47.7648 172.946 47.1898C173.996 46.5898 175.234 46.2898 176.659 46.2898V50.7148H175.571C173.896 50.7148 172.621 51.1398 171.746 51.9898C170.896 52.8398 170.471 54.3148 170.471 56.4148V67.2898H166.196V46.6273H170.471V49.6273ZM199.526 56.4523C199.526 57.2273 199.476 57.9273 199.376 58.5523H183.588C183.713 60.2023 184.326 61.5273 185.426 62.5273C186.526 63.5273 187.876 64.0273 189.476 64.0273C191.776 64.0273 193.401 63.0648 194.351 61.1398H198.963C198.338 63.0398 197.201 64.6023 195.551 65.8273C193.926 67.0273 191.901 67.6273 189.476 67.6273C187.501 67.6273 185.726 67.1898 184.151 66.3148C182.601 65.4148 181.376 64.1648 180.476 62.5648C179.601 60.9398 179.163 59.0648 179.163 56.9398C179.163 54.8148 179.588 52.9523 180.438 51.3523C181.313 49.7273 182.526 48.4773 184.076 47.6023C185.651 46.7273 187.451 46.2898 189.476 46.2898C191.426 46.2898 193.163 46.7148 194.688 47.5648C196.213 48.4148 197.401 49.6148 198.251 51.1648C199.101 52.6898 199.526 54.4523 199.526 56.4523ZM195.063 55.1023C195.038 53.5273 194.476 52.2648 193.376 51.3148C192.276 50.3648 190.913 49.8898 189.288 49.8898C187.813 49.8898 186.551 50.3648 185.501 51.3148C184.451 52.2398 183.826 53.5023 183.626 55.1023H195.063ZM214.158 46.2898C215.783 46.2898 217.233 46.6273 218.508 47.3023C219.808 47.9773 220.82 48.9773 221.545 50.3023C222.27 51.6273 222.633 53.2273 222.633 55.1023V67.2898H218.395V55.7398C218.395 53.8898 217.933 52.4773 217.008 51.5023C216.083 50.5023 214.82 50.0023 213.22 50.0023C211.62 50.0023 210.345 50.5023 209.395 51.5023C208.47 52.4773 208.008 53.8898 208.008 55.7398V67.2898H203.733V46.6273H208.008V48.9898C208.708 48.1398 209.595 47.4773 210.67 47.0023C211.77 46.5273 212.933 46.2898 214.158 46.2898ZM226.661 56.8648C226.661 54.7898 227.086 52.9523 227.936 51.3523C228.811 49.7523 229.986 48.5148 231.461 47.6398C232.961 46.7398 234.623 46.2898 236.448 46.2898C237.798 46.2898 239.123 46.5898 240.423 47.1898C241.748 47.7648 242.798 48.5398 243.573 49.5148V39.5398H247.886V67.2898H243.573V64.1773C242.873 65.1773 241.898 66.0023 240.648 66.6523C239.423 67.3023 238.011 67.6273 236.411 67.6273C234.611 67.6273 232.961 67.1773 231.461 66.2773C229.986 65.3523 228.811 64.0773 227.936 62.4523C227.086 60.8023 226.661 58.9398 226.661 56.8648ZM243.573 56.9398C243.573 55.5148 243.273 54.2773 242.673 53.2273C242.098 52.1773 241.336 51.3773 240.386 50.8273C239.436 50.2773 238.411 50.0023 237.311 50.0023C236.211 50.0023 235.186 50.2773 234.236 50.8273C233.286 51.3523 232.511 52.1398 231.911 53.1898C231.336 54.2148 231.048 55.4398 231.048 56.8648C231.048 58.2898 231.336 59.5398 231.911 60.6148C232.511 61.6898 233.286 62.5148 234.236 63.0898C235.211 63.6398 236.236 63.9148 237.311 63.9148C238.411 63.9148 239.436 63.6398 240.386 63.0898C241.336 62.5398 242.098 61.7398 242.673 60.6898C243.273 59.6148 243.573 58.3648 243.573 56.9398Z" fill="black"/>
<path d="M12.3374 67.5523C10.5874 67.5523 9.01244 67.2523 7.61244 66.6523C6.21244 66.0273 5.11244 65.1523 4.31244 64.0273C3.51244 62.9023 3.11244 61.5898 3.11244 60.0898H7.68744C7.78744 61.2148 8.22494 62.1398 8.99994 62.8648C9.79994 63.5898 10.9124 63.9523 12.3374 63.9523C13.8124 63.9523 14.9624 63.6023 15.7874 62.9023C16.6124 62.1773 17.0249 61.2523 17.0249 60.1273C17.0249 59.2523 16.7624 58.5398 16.2374 57.9898C15.7374 57.4398 15.0999 57.0148 14.3249 56.7148C13.5749 56.4148 12.5249 56.0898 11.1749 55.7398C9.47494 55.2898 8.08744 54.8398 7.01244 54.3898C5.96244 53.9148 5.06244 53.1898 4.31244 52.2148C3.56244 51.2398 3.18744 49.9398 3.18744 48.3148C3.18744 46.8148 3.56244 45.5023 4.31244 44.3773C5.06244 43.2523 6.11244 42.3898 7.46244 41.7898C8.81244 41.1898 10.3749 40.8898 12.1499 40.8898C14.6749 40.8898 16.7374 41.5273 18.3374 42.8023C19.9624 44.0523 20.8624 45.7773 21.0374 47.9773H16.3124C16.2374 47.0273 15.7874 46.2148 14.9624 45.5398C14.1374 44.8648 13.0499 44.5273 11.6999 44.5273C10.4749 44.5273 9.47494 44.8398 8.69994 45.4648C7.92494 46.0898 7.53744 46.9898 7.53744 48.1648C7.53744 48.9648 7.77494 49.6273 8.24994 50.1523C8.74994 50.6523 9.37494 51.0523 10.1249 51.3523C10.8749 51.6523 11.8999 51.9773 13.1999 52.3273C14.9249 52.8023 16.3249 53.2773 17.3999 53.7523C18.4999 54.2273 19.4249 54.9648 20.1749 55.9648C20.9499 56.9398 21.3374 58.2523 21.3374 59.9023C21.3374 61.2273 20.9749 62.4773 20.2499 63.6523C19.5499 64.8273 18.5124 65.7773 17.1374 66.5023C15.7874 67.2023 14.1874 67.5523 12.3374 67.5523Z" fill="black"/>
<path fill-rule="evenodd" clip-rule="evenodd" d="M26.6349 58.6925L50.0613 24.3831L47.2353 20.2174C45.2803 25.9766 39.8875 30.1149 33.5409 30.1149C25.5447 30.1149 19.0624 23.5456 19.0624 15.442C19.0624 7.33842 25.5447 0.769152 33.5409 0.769152C37.5728 0.769152 41.2198 2.43933 43.8449 5.13423C47.4161 8.8003 49.043 13.9791 51.9162 18.2144L53.0909 19.946L54.7116 17.5725C57.4631 13.5426 59.0834 8.64817 62.4933 5.15768C65.1446 2.44382 68.8433 0.769152 72.9043 0.769152C75.6837 0.769152 78.2801 1.56279 80.485 2.93866C82.1119 1.93557 86.0038 0.360748 90.5491 0.779507C91.9178 0.905607 92.9265 2.13229 92.8021 3.51937C92.6776 4.90646 91.4672 5.92869 90.0985 5.80259C87.8442 5.59491 85.8043 6.09075 84.4582 6.59796C86.2939 9.05715 87.3828 12.1207 87.3828 15.442C87.3828 23.5456 80.9006 30.1149 72.9043 30.1149C66.4667 30.1149 61.0104 25.857 59.1279 19.9685L56.1073 24.3924L79.3746 58.6902C80.9319 60.9856 80.3581 64.1258 78.093 65.7039L53.0777 28.8295L27.8956 65.7102C25.6353 64.1251 25.0709 60.9832 26.6349 58.6925ZM63.4028 15.442C63.4028 20.76 67.6568 25.0711 72.9043 25.0711C78.1519 25.0711 82.4059 20.76 82.4059 15.442C82.4059 10.124 78.1519 5.81295 72.9043 5.81295C67.6568 5.81295 63.4028 10.124 63.4028 15.442ZM33.5409 25.0711C28.2934 25.0711 24.0394 20.76 24.0394 15.442C24.0394 10.124 28.2934 5.81295 33.5409 5.81295C38.7885 5.81295 43.0424 10.124 43.0424 15.442C43.0424 20.76 38.7885 25.0711 33.5409 25.0711Z" fill="black"/>
<path fill-rule="evenodd" clip-rule="evenodd" d="M70.5416 66.3658C71.6907 65.5961 71.9982 64.0406 71.2284 62.8915L53.4542 36.359L35.4318 62.8776C34.6544 64.0215 34.9515 65.5791 36.0954 66.3565C37.2393 67.1339 38.7969 66.8368 39.5743 65.6929L53.4243 45.3135L67.0673 65.679C67.8371 66.8281 69.3926 67.1356 70.5416 66.3658Z" fill="black"/>
</svg>
