<svg width="30" height="30" viewBox="0 0 30 30" fill="none" xmlns="http://www.w3.org/2000/svg">
<path d="M11.3531 4.77188C12.6647 3.29438 14.4478 3.52969 15.5897 4.77188L16.2853 5.57813C16.5272 5.83969 16.8759 5.97563 17.2303 5.94563L18.4678 5.57719C20.1553 5.21531 21.6881 6.47438 21.6881 8.42906V9.165C21.7238 9.56719 22.0744 9.84 22.4372 10.0163L23.5556 10.4841C25.1728 11.2734 25.5769 13.1475 24.3994 14.7216L24.0638 15.1622C23.7638 15.5681 23.8256 16.1016 24.1247 16.5084L24.4594 16.9772C25.6772 18.4763 24.99 20.5331 23.2688 21.2522L22.3069 21.6534C21.9441 21.8053 21.8025 22.0659 21.735 22.4522L21.6675 23.7103C21.6267 24.0617 21.5163 24.4014 21.3428 24.7096C21.1694 25.0178 20.9362 25.2884 20.6571 25.5056C20.3779 25.7228 20.0583 25.8823 19.7169 25.9747C19.3754 26.0671 19.019 26.0905 18.6684 26.0438L17.2031 25.6519C16.8506 25.6022 16.4128 25.7184 16.1784 26.0869L15.6497 26.8097C14.3372 28.2891 12.5672 28.0434 11.6738 27.1781L10.6988 25.9969C10.4428 25.7494 10.1203 25.5375 9.73501 25.6838L8.26032 26.0869C7.04157 26.2594 5.6072 25.3228 5.37751 24.1144L5.20782 22.365C5.17367 22.1856 5.09738 22.017 4.98523 21.8729C4.87309 21.7288 4.72831 21.6134 4.56282 21.5363L3.52782 21.18C1.97157 20.4553 1.44939 18.6994 2.34376 17.2331L2.92689 16.4269C3.04166 16.2385 3.10002 16.0212 3.09504 15.8007C3.09005 15.5802 3.02193 15.3658 2.89876 15.1828L2.46282 14.5669C1.23189 12.8138 2.08314 10.8525 3.90845 10.2656L4.31064 10.1353C4.75501 9.99281 5.18439 9.62344 5.22095 9.15844L5.31095 8.02875C5.45626 6.19688 7.1297 5.14313 8.88751 5.67844L9.45751 5.85188C10.0059 6.06563 10.4363 5.88375 10.7353 5.55656L11.3531 4.77188Z" fill="url(#paint0_linear_42_23548)"/>
<path d="M11.3531 4.77188C12.6647 3.29438 14.4478 3.52969 15.5897 4.77188L16.2853 5.57813C16.5272 5.83969 16.8759 5.97563 17.2303 5.94563L18.4678 5.57719C20.1553 5.21531 21.6881 6.47438 21.6881 8.42906V9.165C21.7238 9.56719 22.0744 9.84 22.4372 10.0163L23.5556 10.4841C25.1728 11.2734 25.5769 13.1475 24.3994 14.7216L24.0638 15.1622C23.7638 15.5681 23.8256 16.1016 24.1247 16.5084L24.4594 16.9772C25.6772 18.4763 24.99 20.5331 23.2688 21.2522L22.3069 21.6534C21.9441 21.8053 21.8025 22.0659 21.735 22.4522L21.6675 23.7103C21.6267 24.0617 21.5163 24.4014 21.3428 24.7096C21.1694 25.0178 20.9362 25.2884 20.6571 25.5056C20.3779 25.7228 20.0583 25.8823 19.7169 25.9747C19.3754 26.0671 19.019 26.0905 18.6684 26.0438L17.2031 25.6519C16.8506 25.6022 16.4128 25.7184 16.1784 26.0869L15.6497 26.8097C14.3372 28.2891 12.5672 28.0434 11.6738 27.1781L10.6988 25.9969C10.4428 25.7494 10.1203 25.5375 9.73501 25.6838L8.26032 26.0869C7.04157 26.2594 5.6072 25.3228 5.37751 24.1144L5.20782 22.365C5.17367 22.1856 5.09738 22.017 4.98523 21.8729C4.87309 21.7288 4.72831 21.6134 4.56282 21.5363L3.52782 21.18C1.97157 20.4553 1.44939 18.6994 2.34376 17.2331L2.92689 16.4269C3.04166 16.2385 3.10002 16.0212 3.09504 15.8007C3.09005 15.5802 3.02193 15.3658 2.89876 15.1828L2.46282 14.5669C1.23189 12.8138 2.08314 10.8525 3.90845 10.2656L4.31064 10.1353C4.75501 9.99281 5.18439 9.62344 5.22095 9.15844L5.31095 8.02875C5.45626 6.19688 7.1297 5.14313 8.88751 5.67844L9.45751 5.85188C10.0059 6.06563 10.4363 5.88375 10.7353 5.55656L11.3531 4.77188Z" fill="url(#paint1_radial_42_23548)"/>
<path d="M11.3531 4.77188C12.6647 3.29438 14.4478 3.52969 15.5897 4.77188L16.2853 5.57813C16.5272 5.83969 16.8759 5.97563 17.2303 5.94563L18.4678 5.57719C20.1553 5.21531 21.6881 6.47438 21.6881 8.42906V9.165C21.7238 9.56719 22.0744 9.84 22.4372 10.0163L23.5556 10.4841C25.1728 11.2734 25.5769 13.1475 24.3994 14.7216L24.0638 15.1622C23.7638 15.5681 23.8256 16.1016 24.1247 16.5084L24.4594 16.9772C25.6772 18.4763 24.99 20.5331 23.2688 21.2522L22.3069 21.6534C21.9441 21.8053 21.8025 22.0659 21.735 22.4522L21.6675 23.7103C21.6267 24.0617 21.5163 24.4014 21.3428 24.7096C21.1694 25.0178 20.9362 25.2884 20.6571 25.5056C20.3779 25.7228 20.0583 25.8823 19.7169 25.9747C19.3754 26.0671 19.019 26.0905 18.6684 26.0438L17.2031 25.6519C16.8506 25.6022 16.4128 25.7184 16.1784 26.0869L15.6497 26.8097C14.3372 28.2891 12.5672 28.0434 11.6738 27.1781L10.6988 25.9969C10.4428 25.7494 10.1203 25.5375 9.73501 25.6838L8.26032 26.0869C7.04157 26.2594 5.6072 25.3228 5.37751 24.1144L5.20782 22.365C5.17367 22.1856 5.09738 22.017 4.98523 21.8729C4.87309 21.7288 4.72831 21.6134 4.56282 21.5363L3.52782 21.18C1.97157 20.4553 1.44939 18.6994 2.34376 17.2331L2.92689 16.4269C3.04166 16.2385 3.10002 16.0212 3.09504 15.8007C3.09005 15.5802 3.02193 15.3658 2.89876 15.1828L2.46282 14.5669C1.23189 12.8138 2.08314 10.8525 3.90845 10.2656L4.31064 10.1353C4.75501 9.99281 5.18439 9.62344 5.22095 9.15844L5.31095 8.02875C5.45626 6.19688 7.1297 5.14313 8.88751 5.67844L9.45751 5.85188C10.0059 6.06563 10.4363 5.88375 10.7353 5.55656L11.3531 4.77188Z" fill="url(#paint2_radial_42_23548)"/>
<path d="M11.3531 4.77188C12.6647 3.29438 14.4478 3.52969 15.5897 4.77188L16.2853 5.57813C16.5272 5.83969 16.8759 5.97563 17.2303 5.94563L18.4678 5.57719C20.1553 5.21531 21.6881 6.47438 21.6881 8.42906V9.165C21.7238 9.56719 22.0744 9.84 22.4372 10.0163L23.5556 10.4841C25.1728 11.2734 25.5769 13.1475 24.3994 14.7216L24.0638 15.1622C23.7638 15.5681 23.8256 16.1016 24.1247 16.5084L24.4594 16.9772C25.6772 18.4763 24.99 20.5331 23.2688 21.2522L22.3069 21.6534C21.9441 21.8053 21.8025 22.0659 21.735 22.4522L21.6675 23.7103C21.6267 24.0617 21.5163 24.4014 21.3428 24.7096C21.1694 25.0178 20.9362 25.2884 20.6571 25.5056C20.3779 25.7228 20.0583 25.8823 19.7169 25.9747C19.3754 26.0671 19.019 26.0905 18.6684 26.0438L17.2031 25.6519C16.8506 25.6022 16.4128 25.7184 16.1784 26.0869L15.6497 26.8097C14.3372 28.2891 12.5672 28.0434 11.6738 27.1781L10.6988 25.9969C10.4428 25.7494 10.1203 25.5375 9.73501 25.6838L8.26032 26.0869C7.04157 26.2594 5.6072 25.3228 5.37751 24.1144L5.20782 22.365C5.17367 22.1856 5.09738 22.017 4.98523 21.8729C4.87309 21.7288 4.72831 21.6134 4.56282 21.5363L3.52782 21.18C1.97157 20.4553 1.44939 18.6994 2.34376 17.2331L2.92689 16.4269C3.04166 16.2385 3.10002 16.0212 3.09504 15.8007C3.09005 15.5802 3.02193 15.3658 2.89876 15.1828L2.46282 14.5669C1.23189 12.8138 2.08314 10.8525 3.90845 10.2656L4.31064 10.1353C4.75501 9.99281 5.18439 9.62344 5.22095 9.15844L5.31095 8.02875C5.45626 6.19688 7.1297 5.14313 8.88751 5.67844L9.45751 5.85188C10.0059 6.06563 10.4363 5.88375 10.7353 5.55656L11.3531 4.77188Z" fill="url(#paint3_radial_42_23548)"/>
<path d="M11.3531 4.77188C12.6647 3.29438 14.4478 3.52969 15.5897 4.77188L16.2853 5.57813C16.5272 5.83969 16.8759 5.97563 17.2303 5.94563L18.4678 5.57719C20.1553 5.21531 21.6881 6.47438 21.6881 8.42906V9.165C21.7238 9.56719 22.0744 9.84 22.4372 10.0163L23.5556 10.4841C25.1728 11.2734 25.5769 13.1475 24.3994 14.7216L24.0638 15.1622C23.7638 15.5681 23.8256 16.1016 24.1247 16.5084L24.4594 16.9772C25.6772 18.4763 24.99 20.5331 23.2688 21.2522L22.3069 21.6534C21.9441 21.8053 21.8025 22.0659 21.735 22.4522L21.6675 23.7103C21.6267 24.0617 21.5163 24.4014 21.3428 24.7096C21.1694 25.0178 20.9362 25.2884 20.6571 25.5056C20.3779 25.7228 20.0583 25.8823 19.7169 25.9747C19.3754 26.0671 19.019 26.0905 18.6684 26.0438L17.2031 25.6519C16.8506 25.6022 16.4128 25.7184 16.1784 26.0869L15.6497 26.8097C14.3372 28.2891 12.5672 28.0434 11.6738 27.1781L10.6988 25.9969C10.4428 25.7494 10.1203 25.5375 9.73501 25.6838L8.26032 26.0869C7.04157 26.2594 5.6072 25.3228 5.37751 24.1144L5.20782 22.365C5.17367 22.1856 5.09738 22.017 4.98523 21.8729C4.87309 21.7288 4.72831 21.6134 4.56282 21.5363L3.52782 21.18C1.97157 20.4553 1.44939 18.6994 2.34376 17.2331L2.92689 16.4269C3.04166 16.2385 3.10002 16.0212 3.09504 15.8007C3.09005 15.5802 3.02193 15.3658 2.89876 15.1828L2.46282 14.5669C1.23189 12.8138 2.08314 10.8525 3.90845 10.2656L4.31064 10.1353C4.75501 9.99281 5.18439 9.62344 5.22095 9.15844L5.31095 8.02875C5.45626 6.19688 7.1297 5.14313 8.88751 5.67844L9.45751 5.85188C10.0059 6.06563 10.4363 5.88375 10.7353 5.55656L11.3531 4.77188Z" fill="url(#paint4_radial_42_23548)"/>
<path d="M11.3531 4.77188C12.6647 3.29438 14.4478 3.52969 15.5897 4.77188L16.2853 5.57813C16.5272 5.83969 16.8759 5.97563 17.2303 5.94563L18.4678 5.57719C20.1553 5.21531 21.6881 6.47438 21.6881 8.42906V9.165C21.7238 9.56719 22.0744 9.84 22.4372 10.0163L23.5556 10.4841C25.1728 11.2734 25.5769 13.1475 24.3994 14.7216L24.0638 15.1622C23.7638 15.5681 23.8256 16.1016 24.1247 16.5084L24.4594 16.9772C25.6772 18.4763 24.99 20.5331 23.2688 21.2522L22.3069 21.6534C21.9441 21.8053 21.8025 22.0659 21.735 22.4522L21.6675 23.7103C21.6267 24.0617 21.5163 24.4014 21.3428 24.7096C21.1694 25.0178 20.9362 25.2884 20.6571 25.5056C20.3779 25.7228 20.0583 25.8823 19.7169 25.9747C19.3754 26.0671 19.019 26.0905 18.6684 26.0438L17.2031 25.6519C16.8506 25.6022 16.4128 25.7184 16.1784 26.0869L15.6497 26.8097C14.3372 28.2891 12.5672 28.0434 11.6738 27.1781L10.6988 25.9969C10.4428 25.7494 10.1203 25.5375 9.73501 25.6838L8.26032 26.0869C7.04157 26.2594 5.6072 25.3228 5.37751 24.1144L5.20782 22.365C5.17367 22.1856 5.09738 22.017 4.98523 21.8729C4.87309 21.7288 4.72831 21.6134 4.56282 21.5363L3.52782 21.18C1.97157 20.4553 1.44939 18.6994 2.34376 17.2331L2.92689 16.4269C3.04166 16.2385 3.10002 16.0212 3.09504 15.8007C3.09005 15.5802 3.02193 15.3658 2.89876 15.1828L2.46282 14.5669C1.23189 12.8138 2.08314 10.8525 3.90845 10.2656L4.31064 10.1353C4.75501 9.99281 5.18439 9.62344 5.22095 9.15844L5.31095 8.02875C5.45626 6.19688 7.1297 5.14313 8.88751 5.67844L9.45751 5.85188C10.0059 6.06563 10.4363 5.88375 10.7353 5.55656L11.3531 4.77188Z" fill="url(#paint5_radial_42_23548)"/>
<path d="M11.3531 4.77188C12.6647 3.29438 14.4478 3.52969 15.5897 4.77188L16.2853 5.57813C16.5272 5.83969 16.8759 5.97563 17.2303 5.94563L18.4678 5.57719C20.1553 5.21531 21.6881 6.47438 21.6881 8.42906V9.165C21.7238 9.56719 22.0744 9.84 22.4372 10.0163L23.5556 10.4841C25.1728 11.2734 25.5769 13.1475 24.3994 14.7216L24.0638 15.1622C23.7638 15.5681 23.8256 16.1016 24.1247 16.5084L24.4594 16.9772C25.6772 18.4763 24.99 20.5331 23.2688 21.2522L22.3069 21.6534C21.9441 21.8053 21.8025 22.0659 21.735 22.4522L21.6675 23.7103C21.6267 24.0617 21.5163 24.4014 21.3428 24.7096C21.1694 25.0178 20.9362 25.2884 20.6571 25.5056C20.3779 25.7228 20.0583 25.8823 19.7169 25.9747C19.3754 26.0671 19.019 26.0905 18.6684 26.0438L17.2031 25.6519C16.8506 25.6022 16.4128 25.7184 16.1784 26.0869L15.6497 26.8097C14.3372 28.2891 12.5672 28.0434 11.6738 27.1781L10.6988 25.9969C10.4428 25.7494 10.1203 25.5375 9.73501 25.6838L8.26032 26.0869C7.04157 26.2594 5.6072 25.3228 5.37751 24.1144L5.20782 22.365C5.17367 22.1856 5.09738 22.017 4.98523 21.8729C4.87309 21.7288 4.72831 21.6134 4.56282 21.5363L3.52782 21.18C1.97157 20.4553 1.44939 18.6994 2.34376 17.2331L2.92689 16.4269C3.04166 16.2385 3.10002 16.0212 3.09504 15.8007C3.09005 15.5802 3.02193 15.3658 2.89876 15.1828L2.46282 14.5669C1.23189 12.8138 2.08314 10.8525 3.90845 10.2656L4.31064 10.1353C4.75501 9.99281 5.18439 9.62344 5.22095 9.15844L5.31095 8.02875C5.45626 6.19688 7.1297 5.14313 8.88751 5.67844L9.45751 5.85188C10.0059 6.06563 10.4363 5.88375 10.7353 5.55656L11.3531 4.77188Z" fill="url(#paint6_radial_42_23548)"/>
<path d="M11.3531 4.77188C12.6647 3.29438 14.4478 3.52969 15.5897 4.77188L16.2853 5.57813C16.5272 5.83969 16.8759 5.97563 17.2303 5.94563L18.4678 5.57719C20.1553 5.21531 21.6881 6.47438 21.6881 8.42906V9.165C21.7238 9.56719 22.0744 9.84 22.4372 10.0163L23.5556 10.4841C25.1728 11.2734 25.5769 13.1475 24.3994 14.7216L24.0638 15.1622C23.7638 15.5681 23.8256 16.1016 24.1247 16.5084L24.4594 16.9772C25.6772 18.4763 24.99 20.5331 23.2688 21.2522L22.3069 21.6534C21.9441 21.8053 21.8025 22.0659 21.735 22.4522L21.6675 23.7103C21.6267 24.0617 21.5163 24.4014 21.3428 24.7096C21.1694 25.0178 20.9362 25.2884 20.6571 25.5056C20.3779 25.7228 20.0583 25.8823 19.7169 25.9747C19.3754 26.0671 19.019 26.0905 18.6684 26.0438L17.2031 25.6519C16.8506 25.6022 16.4128 25.7184 16.1784 26.0869L15.6497 26.8097C14.3372 28.2891 12.5672 28.0434 11.6738 27.1781L10.6988 25.9969C10.4428 25.7494 10.1203 25.5375 9.73501 25.6838L8.26032 26.0869C7.04157 26.2594 5.6072 25.3228 5.37751 24.1144L5.20782 22.365C5.17367 22.1856 5.09738 22.017 4.98523 21.8729C4.87309 21.7288 4.72831 21.6134 4.56282 21.5363L3.52782 21.18C1.97157 20.4553 1.44939 18.6994 2.34376 17.2331L2.92689 16.4269C3.04166 16.2385 3.10002 16.0212 3.09504 15.8007C3.09005 15.5802 3.02193 15.3658 2.89876 15.1828L2.46282 14.5669C1.23189 12.8138 2.08314 10.8525 3.90845 10.2656L4.31064 10.1353C4.75501 9.99281 5.18439 9.62344 5.22095 9.15844L5.31095 8.02875C5.45626 6.19688 7.1297 5.14313 8.88751 5.67844L9.45751 5.85188C10.0059 6.06563 10.4363 5.88375 10.7353 5.55656L11.3531 4.77188Z" fill="url(#paint7_radial_42_23548)"/>
<path d="M11.3531 4.77188C12.6647 3.29438 14.4478 3.52969 15.5897 4.77188L16.2853 5.57813C16.5272 5.83969 16.8759 5.97563 17.2303 5.94563L18.4678 5.57719C20.1553 5.21531 21.6881 6.47438 21.6881 8.42906V9.165C21.7238 9.56719 22.0744 9.84 22.4372 10.0163L23.5556 10.4841C25.1728 11.2734 25.5769 13.1475 24.3994 14.7216L24.0638 15.1622C23.7638 15.5681 23.8256 16.1016 24.1247 16.5084L24.4594 16.9772C25.6772 18.4763 24.99 20.5331 23.2688 21.2522L22.3069 21.6534C21.9441 21.8053 21.8025 22.0659 21.735 22.4522L21.6675 23.7103C21.6267 24.0617 21.5163 24.4014 21.3428 24.7096C21.1694 25.0178 20.9362 25.2884 20.6571 25.5056C20.3779 25.7228 20.0583 25.8823 19.7169 25.9747C19.3754 26.0671 19.019 26.0905 18.6684 26.0438L17.2031 25.6519C16.8506 25.6022 16.4128 25.7184 16.1784 26.0869L15.6497 26.8097C14.3372 28.2891 12.5672 28.0434 11.6738 27.1781L10.6988 25.9969C10.4428 25.7494 10.1203 25.5375 9.73501 25.6838L8.26032 26.0869C7.04157 26.2594 5.6072 25.3228 5.37751 24.1144L5.20782 22.365C5.17367 22.1856 5.09738 22.017 4.98523 21.8729C4.87309 21.7288 4.72831 21.6134 4.56282 21.5363L3.52782 21.18C1.97157 20.4553 1.44939 18.6994 2.34376 17.2331L2.92689 16.4269C3.04166 16.2385 3.10002 16.0212 3.09504 15.8007C3.09005 15.5802 3.02193 15.3658 2.89876 15.1828L2.46282 14.5669C1.23189 12.8138 2.08314 10.8525 3.90845 10.2656L4.31064 10.1353C4.75501 9.99281 5.18439 9.62344 5.22095 9.15844L5.31095 8.02875C5.45626 6.19688 7.1297 5.14313 8.88751 5.67844L9.45751 5.85188C10.0059 6.06563 10.4363 5.88375 10.7353 5.55656L11.3531 4.77188Z" fill="url(#paint8_radial_42_23548)"/>
<path d="M11.3531 4.77188C12.6647 3.29438 14.4478 3.52969 15.5897 4.77188L16.2853 5.57813C16.5272 5.83969 16.8759 5.97563 17.2303 5.94563L18.4678 5.57719C20.1553 5.21531 21.6881 6.47438 21.6881 8.42906V9.165C21.7238 9.56719 22.0744 9.84 22.4372 10.0163L23.5556 10.4841C25.1728 11.2734 25.5769 13.1475 24.3994 14.7216L24.0638 15.1622C23.7638 15.5681 23.8256 16.1016 24.1247 16.5084L24.4594 16.9772C25.6772 18.4763 24.99 20.5331 23.2688 21.2522L22.3069 21.6534C21.9441 21.8053 21.8025 22.0659 21.735 22.4522L21.6675 23.7103C21.6267 24.0617 21.5163 24.4014 21.3428 24.7096C21.1694 25.0178 20.9362 25.2884 20.6571 25.5056C20.3779 25.7228 20.0583 25.8823 19.7169 25.9747C19.3754 26.0671 19.019 26.0905 18.6684 26.0438L17.2031 25.6519C16.8506 25.6022 16.4128 25.7184 16.1784 26.0869L15.6497 26.8097C14.3372 28.2891 12.5672 28.0434 11.6738 27.1781L10.6988 25.9969C10.4428 25.7494 10.1203 25.5375 9.73501 25.6838L8.26032 26.0869C7.04157 26.2594 5.6072 25.3228 5.37751 24.1144L5.20782 22.365C5.17367 22.1856 5.09738 22.017 4.98523 21.8729C4.87309 21.7288 4.72831 21.6134 4.56282 21.5363L3.52782 21.18C1.97157 20.4553 1.44939 18.6994 2.34376 17.2331L2.92689 16.4269C3.04166 16.2385 3.10002 16.0212 3.09504 15.8007C3.09005 15.5802 3.02193 15.3658 2.89876 15.1828L2.46282 14.5669C1.23189 12.8138 2.08314 10.8525 3.90845 10.2656L4.31064 10.1353C4.75501 9.99281 5.18439 9.62344 5.22095 9.15844L5.31095 8.02875C5.45626 6.19688 7.1297 5.14313 8.88751 5.67844L9.45751 5.85188C10.0059 6.06563 10.4363 5.88375 10.7353 5.55656L11.3531 4.77188Z" fill="url(#paint9_radial_42_23548)"/>
<g filter="url(#filter0_d_42_23548)">
<path d="M13.4813 24.9937C18.5644 24.9937 22.6856 20.8734 22.6856 15.7903C22.6856 10.7062 18.5644 6.58499 13.4803 6.58499C8.39719 6.58499 4.27594 10.7062 4.27594 15.7903C4.27594 20.8734 8.39719 24.9947 13.4803 24.9947" fill="url(#paint10_radial_42_23548)"/>
<path d="M13.4813 24.9937C18.5644 24.9937 22.6856 20.8734 22.6856 15.7903C22.6856 10.7062 18.5644 6.58499 13.4803 6.58499C8.39719 6.58499 4.27594 10.7062 4.27594 15.7903C4.27594 20.8734 8.39719 24.9947 13.4803 24.9947" fill="url(#paint11_radial_42_23548)"/>
<path d="M13.4813 24.9937C18.5644 24.9937 22.6856 20.8734 22.6856 15.7903C22.6856 10.7062 18.5644 6.58499 13.4803 6.58499C8.39719 6.58499 4.27594 10.7062 4.27594 15.7903C4.27594 20.8734 8.39719 24.9947 13.4803 24.9947" fill="url(#paint12_radial_42_23548)"/>
</g>
<path d="M15.6469 23.2988C16.4005 23.2988 17.1233 22.9994 17.6562 22.4665C18.1891 21.9336 18.4885 21.2108 18.4885 20.4572C18.4885 19.7036 18.1891 18.9808 17.6562 18.4479C17.1233 17.915 16.4005 17.6156 15.6469 17.6156C14.8933 17.6156 14.1705 17.915 13.6376 18.4479C13.1047 18.9808 12.8053 19.7036 12.8053 20.4572C12.8053 21.2108 13.1047 21.9336 13.6376 22.4665C14.1705 22.9994 14.8933 23.2988 15.6469 23.2988Z" fill="url(#paint13_radial_42_23548)"/>
<path d="M15.6469 23.2988C16.4005 23.2988 17.1233 22.9994 17.6562 22.4665C18.1891 21.9336 18.4885 21.2108 18.4885 20.4572C18.4885 19.7036 18.1891 18.9808 17.6562 18.4479C17.1233 17.915 16.4005 17.6156 15.6469 17.6156C14.8933 17.6156 14.1705 17.915 13.6376 18.4479C13.1047 18.9808 12.8053 19.7036 12.8053 20.4572C12.8053 21.2108 13.1047 21.9336 13.6376 22.4665C14.1705 22.9994 14.8933 23.2988 15.6469 23.2988Z" fill="url(#paint14_radial_42_23548)"/>
<g filter="url(#filter1_i_42_23548)">
<path d="M26.2191 17.6119C23.7178 15.1744 19.7147 15.2156 17.2753 17.7178C16.6655 18.3403 16.1915 19.0825 15.8831 19.8975C15.8691 19.9326 15.8476 19.9643 15.82 19.9902C15.7924 20.016 15.7595 20.0355 15.7235 20.0473C15.6875 20.059 15.6494 20.0626 15.6119 20.058C15.5743 20.0533 15.5383 20.0405 15.5063 20.0203C15.307 19.8934 15.0975 19.7834 14.88 19.6912C13.9492 19.2634 12.9013 19.1622 11.9058 19.404C10.9103 19.6457 10.0255 20.2163 9.39456 21.0233C8.76362 21.8304 8.42344 22.8267 8.42909 23.8511C8.43473 24.8755 8.78585 25.8681 9.42564 26.6681C9.8523 27.2297 10.4033 27.6849 11.0354 27.9978C11.6675 28.3108 12.3634 28.473 13.0688 28.4719H22.0125C22.9546 28.4727 23.8831 28.2479 24.7205 27.8164C25.5578 27.3848 26.2797 26.759 26.8256 25.9912C28.7419 23.4825 28.5375 19.8741 26.2191 17.6119Z" fill="#D5D4DA"/>
<path d="M26.2191 17.6119C23.7178 15.1744 19.7147 15.2156 17.2753 17.7178C16.6655 18.3403 16.1915 19.0825 15.8831 19.8975C15.8691 19.9326 15.8476 19.9643 15.82 19.9902C15.7924 20.016 15.7595 20.0355 15.7235 20.0473C15.6875 20.059 15.6494 20.0626 15.6119 20.058C15.5743 20.0533 15.5383 20.0405 15.5063 20.0203C15.307 19.8934 15.0975 19.7834 14.88 19.6912C13.9492 19.2634 12.9013 19.1622 11.9058 19.404C10.9103 19.6457 10.0255 20.2163 9.39456 21.0233C8.76362 21.8304 8.42344 22.8267 8.42909 23.8511C8.43473 24.8755 8.78585 25.8681 9.42564 26.6681C9.8523 27.2297 10.4033 27.6849 11.0354 27.9978C11.6675 28.3108 12.3634 28.473 13.0688 28.4719H22.0125C22.9546 28.4727 23.8831 28.2479 24.7205 27.8164C25.5578 27.3848 26.2797 26.759 26.8256 25.9912C28.7419 23.4825 28.5375 19.8741 26.2191 17.6119Z" fill="url(#paint15_linear_42_23548)"/>
</g>
<path d="M26.2191 17.6119C23.7178 15.1744 19.7147 15.2156 17.2753 17.7178C16.6655 18.3403 16.1915 19.0825 15.8831 19.8975C15.8691 19.9326 15.8476 19.9643 15.82 19.9902C15.7924 20.016 15.7595 20.0355 15.7235 20.0473C15.6875 20.059 15.6494 20.0626 15.6119 20.058C15.5743 20.0533 15.5383 20.0405 15.5063 20.0203C15.307 19.8934 15.0975 19.7834 14.88 19.6912C13.9492 19.2634 12.9013 19.1622 11.9058 19.404C10.9103 19.6457 10.0255 20.2163 9.39456 21.0233C8.76362 21.8304 8.42344 22.8267 8.42909 23.8511C8.43473 24.8755 8.78585 25.8681 9.42564 26.6681C9.8523 27.2297 10.4033 27.6849 11.0354 27.9978C11.6675 28.3108 12.3634 28.473 13.0688 28.4719H22.0125C22.9546 28.4727 23.8831 28.2479 24.7205 27.8164C25.5578 27.3848 26.2797 26.759 26.8256 25.9912C28.7419 23.4825 28.5375 19.8741 26.2191 17.6119Z" fill="url(#paint16_radial_42_23548)"/>
<path d="M26.2191 17.6119C23.7178 15.1744 19.7147 15.2156 17.2753 17.7178C16.6655 18.3403 16.1915 19.0825 15.8831 19.8975C15.8691 19.9326 15.8476 19.9643 15.82 19.9902C15.7924 20.016 15.7595 20.0355 15.7235 20.0473C15.6875 20.059 15.6494 20.0626 15.6119 20.058C15.5743 20.0533 15.5383 20.0405 15.5063 20.0203C15.307 19.8934 15.0975 19.7834 14.88 19.6912C13.9492 19.2634 12.9013 19.1622 11.9058 19.404C10.9103 19.6457 10.0255 20.2163 9.39456 21.0233C8.76362 21.8304 8.42344 22.8267 8.42909 23.8511C8.43473 24.8755 8.78585 25.8681 9.42564 26.6681C9.8523 27.2297 10.4033 27.6849 11.0354 27.9978C11.6675 28.3108 12.3634 28.473 13.0688 28.4719H22.0125C22.9546 28.4727 23.8831 28.2479 24.7205 27.8164C25.5578 27.3848 26.2797 26.759 26.8256 25.9912C28.7419 23.4825 28.5375 19.8741 26.2191 17.6119Z" fill="url(#paint17_radial_42_23548)"/>
<path d="M26.2191 17.6119C23.7178 15.1744 19.7147 15.2156 17.2753 17.7178C16.6655 18.3403 16.1915 19.0825 15.8831 19.8975C15.8691 19.9326 15.8476 19.9643 15.82 19.9902C15.7924 20.016 15.7595 20.0355 15.7235 20.0473C15.6875 20.059 15.6494 20.0626 15.6119 20.058C15.5743 20.0533 15.5383 20.0405 15.5063 20.0203C15.307 19.8934 15.0975 19.7834 14.88 19.6912C13.9492 19.2634 12.9013 19.1622 11.9058 19.404C10.9103 19.6457 10.0255 20.2163 9.39456 21.0233C8.76362 21.8304 8.42344 22.8267 8.42909 23.8511C8.43473 24.8755 8.78585 25.8681 9.42564 26.6681C9.8523 27.2297 10.4033 27.6849 11.0354 27.9978C11.6675 28.3108 12.3634 28.473 13.0688 28.4719H22.0125C22.9546 28.4727 23.8831 28.2479 24.7205 27.8164C25.5578 27.3848 26.2797 26.759 26.8256 25.9912C28.7419 23.4825 28.5375 19.8741 26.2191 17.6119Z" fill="url(#paint18_radial_42_23548)"/>
<path d="M26.2191 17.6119C23.7178 15.1744 19.7147 15.2156 17.2753 17.7178C16.6655 18.3403 16.1915 19.0825 15.8831 19.8975C15.8691 19.9326 15.8476 19.9643 15.82 19.9902C15.7924 20.016 15.7595 20.0355 15.7235 20.0473C15.6875 20.059 15.6494 20.0626 15.6119 20.058C15.5743 20.0533 15.5383 20.0405 15.5063 20.0203C15.307 19.8934 15.0975 19.7834 14.88 19.6912C13.9492 19.2634 12.9013 19.1622 11.9058 19.404C10.9103 19.6457 10.0255 20.2163 9.39456 21.0233C8.76362 21.8304 8.42344 22.8267 8.42909 23.8511C8.43473 24.8755 8.78585 25.8681 9.42564 26.6681C9.8523 27.2297 10.4033 27.6849 11.0354 27.9978C11.6675 28.3108 12.3634 28.473 13.0688 28.4719H22.0125C22.9546 28.4727 23.8831 28.2479 24.7205 27.8164C25.5578 27.3848 26.2797 26.759 26.8256 25.9912C28.7419 23.4825 28.5375 19.8741 26.2191 17.6119Z" fill="url(#paint19_radial_42_23548)"/>
<defs>
<filter id="filter0_d_42_23548" x="3.67594" y="6.58499" width="19.0097" height="19.0097" filterUnits="userSpaceOnUse" color-interpolation-filters="sRGB">
<feFlood flood-opacity="0" result="BackgroundImageFix"/>
<feColorMatrix in="SourceAlpha" type="matrix" values="0 0 0 0 0 0 0 0 0 0 0 0 0 0 0 0 0 0 127 0" result="hardAlpha"/>
<feOffset dx="-0.3" dy="0.3"/>
<feGaussianBlur stdDeviation="0.15"/>
<feComposite in2="hardAlpha" operator="out"/>
<feColorMatrix type="matrix" values="0 0 0 0 0.921569 0 0 0 0 0.47451 0 0 0 0 0.133333 0 0 0 1 0"/>
<feBlend mode="normal" in2="BackgroundImageFix" result="effect1_dropShadow_42_23548"/>
<feBlend mode="normal" in="SourceGraphic" in2="effect1_dropShadow_42_23548" result="shape"/>
</filter>
<filter id="filter1_i_42_23548" x="8.42902" y="14.812" width="19.6959" height="13.6598" filterUnits="userSpaceOnUse" color-interpolation-filters="sRGB">
<feFlood flood-opacity="0" result="BackgroundImageFix"/>
<feBlend mode="normal" in="SourceGraphic" in2="BackgroundImageFix" result="shape"/>
<feColorMatrix in="SourceAlpha" type="matrix" values="0 0 0 0 0 0 0 0 0 0 0 0 0 0 0 0 0 0 127 0" result="hardAlpha"/>
<feOffset dy="-1"/>
<feGaussianBlur stdDeviation="1"/>
<feComposite in2="hardAlpha" operator="arithmetic" k2="-1" k3="1"/>
<feColorMatrix type="matrix" values="0 0 0 0 0.815686 0 0 0 0 0.784314 0 0 0 0 0.956863 0 0 0 1 0"/>
<feBlend mode="normal" in2="shape" result="effect1_innerShadow_42_23548"/>
</filter>
<linearGradient id="paint0_linear_42_23548" x1="20.6297" y1="7.80094" x2="7.47751" y2="24.5813" gradientUnits="userSpaceOnUse">
<stop stop-color="#FC8B23"/>
<stop offset="1" stop-color="#E67639"/>
</linearGradient>
<radialGradient id="paint1_radial_42_23548" cx="0" cy="0" r="1" gradientUnits="userSpaceOnUse" gradientTransform="translate(15.6947 4.86281) rotate(138.155) scale(3.23756 2.85652)">
<stop offset="0.3" stop-color="#FFA13A"/>
<stop offset="1" stop-color="#FFA13A" stop-opacity="0"/>
</radialGradient>
<radialGradient id="paint2_radial_42_23548" cx="0" cy="0" r="1" gradientUnits="userSpaceOnUse" gradientTransform="translate(7.27085 3.84084) rotate(67.811) scale(5.14696 4.54121)">
<stop offset="0.3" stop-color="#FF942A"/>
<stop offset="1" stop-color="#FF942A" stop-opacity="0"/>
</radialGradient>
<radialGradient id="paint3_radial_42_23548" cx="0" cy="0" r="1" gradientUnits="userSpaceOnUse" gradientTransform="translate(21.0951 8.64311) rotate(-164.745) scale(2.05216 2.84149)">
<stop offset="0.3" stop-color="#FFA13D"/>
<stop offset="1" stop-color="#FFA13D" stop-opacity="0"/>
</radialGradient>
<radialGradient id="paint4_radial_42_23548" cx="0" cy="0" r="1" gradientUnits="userSpaceOnUse" gradientTransform="translate(25.2337 11.6308) rotate(154.195) scale(3.63858 2.68735)">
<stop offset="0.3" stop-color="#FFA13D"/>
<stop offset="1" stop-color="#FFA13D" stop-opacity="0"/>
</radialGradient>
<radialGradient id="paint5_radial_42_23548" cx="0" cy="0" r="1" gradientUnits="userSpaceOnUse" gradientTransform="translate(26.0259 17.7853) rotate(-173.379) scale(4.05877 2.28726)">
<stop offset="0.3" stop-color="#FFA13D"/>
<stop offset="1" stop-color="#FFA13D" stop-opacity="0"/>
</radialGradient>
<radialGradient id="paint6_radial_42_23548" cx="0" cy="0" r="1" gradientUnits="userSpaceOnUse" gradientTransform="translate(22.3907 22.501) rotate(-43.964) scale(3.68164 3.54682)">
<stop stop-color="#E0762A"/>
<stop offset="1" stop-color="#E0762A" stop-opacity="0"/>
</radialGradient>
<radialGradient id="paint7_radial_42_23548" cx="0" cy="0" r="1" gradientUnits="userSpaceOnUse" gradientTransform="translate(5.32782 21.6375) rotate(-127.747) scale(2.82252 2.71918)">
<stop stop-color="#E0762A"/>
<stop offset="1" stop-color="#E0762A" stop-opacity="0"/>
</radialGradient>
<radialGradient id="paint8_radial_42_23548" cx="0" cy="0" r="1" gradientUnits="userSpaceOnUse" gradientTransform="translate(1.47564 12.0984) rotate(25.278) scale(2.86626 3.46428)">
<stop stop-color="#F0851D"/>
<stop offset="1" stop-color="#F0851D" stop-opacity="0"/>
</radialGradient>
<radialGradient id="paint9_radial_42_23548" cx="0" cy="0" r="1" gradientUnits="userSpaceOnUse" gradientTransform="translate(18.585 26.5894) rotate(-142.487) scale(3.34175 3.15266)">
<stop offset="0.337" stop-color="#E3745B"/>
<stop offset="1" stop-color="#E3745B" stop-opacity="0"/>
</radialGradient>
<radialGradient id="paint10_radial_42_23548" cx="0" cy="0" r="1" gradientUnits="userSpaceOnUse" gradientTransform="translate(18.7039 10.4572) rotate(117.739) scale(16.4249 20.2831)">
<stop offset="0.172" stop-color="#FFD13D"/>
<stop offset="1" stop-color="#D89A29"/>
</radialGradient>
<radialGradient id="paint11_radial_42_23548" cx="0" cy="0" r="1" gradientUnits="userSpaceOnUse" gradientTransform="translate(10.2094 21.09) rotate(-140.631) scale(5.72978 4.8376)">
<stop offset="0.341" stop-color="#DCA225"/>
<stop offset="1" stop-color="#DCA225" stop-opacity="0"/>
</radialGradient>
<radialGradient id="paint12_radial_42_23548" cx="0" cy="0" r="1" gradientUnits="userSpaceOnUse" gradientTransform="translate(20.998 14.2171) rotate(168.299) scale(19.602 16.5498)">
<stop offset="0.62" stop-color="#DCA225" stop-opacity="0"/>
<stop offset="1" stop-color="#DCA225"/>
</radialGradient>
<radialGradient id="paint13_radial_42_23548" cx="0" cy="0" r="1" gradientUnits="userSpaceOnUse" gradientTransform="translate(16.6714 19.4019) rotate(-172.463) scale(3.89965 3.89965)">
<stop offset="0.309" stop-color="#E8E8E9"/>
<stop offset="1" stop-color="#D2D2D2"/>
</radialGradient>
<radialGradient id="paint14_radial_42_23548" cx="0" cy="0" r="1" gradientUnits="userSpaceOnUse" gradientTransform="translate(15.9516 20.2163) rotate(-141.242) scale(2.11699 1.93965)">
<stop stop-color="#CDCDCE"/>
<stop offset="1" stop-color="#CDCDCE" stop-opacity="0"/>
</radialGradient>
<linearGradient id="paint15_linear_42_23548" x1="20.2903" y1="27.7912" x2="20.2903" y2="22.5075" gradientUnits="userSpaceOnUse">
<stop stop-color="#DED7FA"/>
<stop offset="1" stop-color="#DED7FA" stop-opacity="0"/>
</linearGradient>
<radialGradient id="paint16_radial_42_23548" cx="0" cy="0" r="1" gradientUnits="userSpaceOnUse" gradientTransform="translate(25.5752 20.0684) rotate(136.5) scale(7.84513 8.41548)">
<stop offset="0.179" stop-color="#FCFBFE"/>
<stop offset="1" stop-color="#FCFBFE" stop-opacity="0"/>
</radialGradient>
<radialGradient id="paint17_radial_42_23548" cx="0" cy="0" r="1" gradientUnits="userSpaceOnUse" gradientTransform="translate(13.1142 23.0763) rotate(144.444) scale(4.81294 5.04323)">
<stop stop-color="#FCFBFE"/>
<stop offset="1" stop-color="#FCFBFE" stop-opacity="0"/>
</radialGradient>
<radialGradient id="paint18_radial_42_23548" cx="0" cy="0" r="1" gradientUnits="userSpaceOnUse" gradientTransform="translate(24.7584 21.7669) rotate(166.654) scale(16.7801 13.2149)">
<stop offset="0.815" stop-color="#CECCD7" stop-opacity="0"/>
<stop offset="1" stop-color="#CECCD7"/>
</radialGradient>
<radialGradient id="paint19_radial_42_23548" cx="0" cy="0" r="1" gradientUnits="userSpaceOnUse" gradientTransform="translate(10.995 29.1883) rotate(-46.79) scale(4.54603 6.27365)">
<stop stop-color="#D0C9EE"/>
<stop offset="1" stop-color="#D0C9EE" stop-opacity="0"/>
</radialGradient>
</defs>
</svg>
